<svg width="85" height="32" viewBox="0 0 85 32" fill="none" xmlns="http://www.w3.org/2000/svg">
<path fill-rule="evenodd" clip-rule="evenodd" d="M76.976 31.4624H83.7894V11.2714H76.976V31.4624Z" fill="#4E7EFF"/>
<path fill-rule="evenodd" clip-rule="evenodd" d="M84.7567 4.41333C84.7567 1.97588 82.7985 0 80.3827 0C77.967 0 76.0087 1.97588 76.0087 4.41333C76.0087 6.85078 77.967 8.82666 80.3827 8.82666C82.7985 8.82666 84.7567 6.85078 84.7567 4.41333Z" fill="#4E7EFF"/>
<path fill-rule="evenodd" clip-rule="evenodd" d="M62.4273 25.1768C59.8144 25.1768 57.696 23.0394 57.696 20.4029C57.696 17.7665 59.8144 15.6292 62.4273 15.6292C65.0403 15.6292 67.1585 17.7665 67.1585 20.4029C67.1585 23.0394 65.0403 25.1768 62.4273 25.1768ZM73.9892 20.4029V1.14938H67.1585V10.1315C65.8643 9.29332 64.1136 8.82673 62.4273 8.82673C56.0418 8.82673 50.8655 14.0096 50.8655 20.4029C50.8655 26.7963 56.0418 31.9793 62.4273 31.9793C68.6013 31.9793 73.9892 27.1873 73.9892 20.4029Z" fill="#4E7EFF"/>
<path fill-rule="evenodd" clip-rule="evenodd" d="M37.066 25.1768C34.453 25.1768 32.3348 23.0394 32.3348 20.4029C32.3348 17.7665 34.453 15.6292 37.066 15.6292C39.6791 15.6292 41.7972 17.7665 41.7972 20.4029C41.7972 23.0394 39.6791 25.1768 37.066 25.1768ZM48.6279 20.4029V1.14938H41.7972V10.1315C40.5031 9.29332 38.7523 8.82673 37.066 8.82673C30.6806 8.82673 25.5042 14.0096 25.5042 20.4029C25.5042 26.7963 30.6806 31.9793 37.066 31.9793C43.24 31.9793 48.6279 27.1873 48.6279 20.4029Z" fill="#4E7EFF"/>
<path fill-rule="evenodd" clip-rule="evenodd" d="M11.5618 14.7182C9.39872 14.7182 7.55365 16.0887 6.83052 18.0157V11.604C6.83052 8.96748 8.94877 6.83017 11.5618 6.83017C14.1748 6.83017 16.2931 8.96748 16.2931 11.604V18.0157C15.5701 16.0887 13.725 14.7182 11.5618 14.7182ZM16.2931 21.6457V31.3548H23.1065V12.0667C23.1125 11.9125 23.1237 11.7597 23.1237 11.604C23.1237 5.2107 17.9473 0.0277405 11.5618 0.0277405C5.17636 0.0277405 0 5.2107 0 11.604V31.3548H6.81341V21.5841C7.52461 23.5345 9.38205 24.9257 11.5618 24.9257C13.6936 24.9257 15.5169 23.595 16.2614 21.7119L16.2931 21.6457Z" fill="#4E7EFF"/>
</svg>
